<svg fill="#000000" width="30px" height="30px" viewBox="-0.075 -0.075 0.9 0.9" xmlns="http://www.w3.org/2000/svg" preserveAspectRatio="xMinYMin" class="jam jam-task-list-f"><path d="M0.225 0h0.3a0.225 0.225 0 0 1 0.225 0.225v0.3a0.225 0.225 0 0 1 -0.225 0.225H0.225a0.225 0.225 0 0 1 -0.225 -0.225V0.225a0.225 0.225 0 0 1 0.225 -0.225zm0.225 0.337a0.037 0.037 0 0 0 0 0.075h0.112a0.037 0.037 0 1 0 0 -0.075h-0.112zm-0.075 0.15a0.037 0.037 0 0 0 0 0.075h0.188a0.037 0.037 0 1 0 0 -0.075h-0.188zm0 -0.3a0.037 0.037 0 1 0 0 0.075h0.188a0.037 0.037 0 0 0 0 -0.075h-0.188zm-0.156 0.197 -0.027 -0.027a0.037 0.037 0 1 0 -0.053 0.053l0.053 0.053a0.037 0.037 0 0 0 0.053 0l0.106 -0.106A0.037 0.037 0 0 0 0.298 0.304l-0.08 0.08z"/></svg>